a<svg width="100%" height="100%" viewBox="0 0 209 57" fill="none" xmlns="http://www.w3.org/2000/svg">
<path d="M17.8509 15.5837V18.3883H6.3672V27.2948H15.6906V30.0994H6.3672V42H2.9183V15.5837H17.8509ZM23.7976 17.8577C23.1407 17.8577 22.5848 17.6303 22.13 17.1755C21.6752 16.7207 21.4478 16.1648 21.4478 15.5079C21.4478 14.851 21.6752 14.2951 22.13 13.8403C22.5848 13.3855 23.1407 13.1581 23.7976 13.1581C24.4293 13.1581 24.9599 13.3855 25.3894 13.8403C25.8442 14.2951 26.0716 14.851 26.0716 15.5079C26.0716 16.1648 25.8442 16.7207 25.3894 17.1755C24.9599 17.6303 24.4293 17.8577 23.7976 17.8577ZM25.4652 21.2308V42H22.0163V21.2308H25.4652ZM34.7922 13.954V42H31.3433V13.954H34.7922ZM65.6464 20.8518C67.2634 20.8518 68.7036 21.1929 69.967 21.8751C71.2303 22.532 72.2283 23.5301 72.9611 24.8692C73.6938 26.2083 74.0602 27.838 74.0602 29.7583V42H70.6492V30.251C70.6492 28.1791 70.1312 26.6 69.0953 25.5135C68.0846 24.4018 66.7076 23.8459 64.9642 23.8459C63.1702 23.8459 61.7427 24.427 60.6815 25.5893C59.6203 26.7263 59.0897 28.3813 59.0897 30.5542V42H55.6787V30.251C55.6787 28.1791 55.1607 26.6 54.1248 25.5135C53.1141 24.4018 51.7371 23.8459 49.9937 23.8459C48.1997 23.8459 46.7722 24.427 45.711 25.5893C44.6498 26.7263 44.1192 28.3813 44.1192 30.5542V42H40.6703V21.2308H44.1192V24.2249C44.8014 23.1384 45.711 22.3046 46.848 21.7235C48.0102 21.1424 49.2862 20.8518 50.6759 20.8518C52.4193 20.8518 53.9605 21.2434 55.2997 22.0267C56.6388 22.81 57.6368 23.9596 58.2938 25.4756C58.8749 24.0101 59.835 22.8731 61.1742 22.0646C62.5133 21.2561 64.004 20.8518 65.6464 20.8518Z" fill="#E79952"/>
<path d="M88.2942 42.2653C86.5508 42.2653 84.9843 41.9621 83.5946 41.3557C82.2302 40.724 81.1564 39.865 80.3731 38.7785C79.5898 37.6668 79.1856 36.3908 79.1603 34.9506H82.8366C82.9629 36.1887 83.4683 37.2372 84.3526 38.0963C85.2622 38.9301 86.5761 39.347 88.2942 39.347C89.9365 39.347 91.2251 38.9427 92.16 38.1342C93.1201 37.3004 93.6002 36.2392 93.6002 34.9506C93.6002 33.9399 93.3223 33.1188 92.7664 32.4871C92.2105 31.8554 91.5157 31.3754 90.6819 31.0469C89.8481 30.7184 88.7237 30.3647 87.3088 29.9857C85.5654 29.5309 84.1631 29.0761 83.1019 28.6213C82.066 28.1665 81.169 27.459 80.411 26.4989C79.6783 25.5135 79.3119 24.1996 79.3119 22.5573C79.3119 21.1171 79.6783 19.8411 80.411 18.7294C81.1437 17.6177 82.167 16.7586 83.4809 16.1522C84.82 15.5458 86.3487 15.2426 88.0668 15.2426C90.5429 15.2426 92.5643 15.8616 94.1308 17.0997C95.7226 18.3378 96.6196 19.9801 96.8217 22.0267H93.0317C92.9054 21.016 92.3748 20.1317 91.4399 19.3737C90.505 18.5904 89.267 18.1988 87.7257 18.1988C86.2855 18.1988 85.1106 18.5778 84.201 19.3358C83.2914 20.0685 82.8366 21.1045 82.8366 22.4436C82.8366 23.4037 83.1019 24.187 83.6325 24.7934C84.1884 25.3998 84.8579 25.8672 85.6412 26.1957C86.4497 26.4989 87.5741 26.8526 89.0143 27.2569C90.7577 27.737 92.16 28.217 93.2212 28.6971C94.2824 29.1519 95.192 29.872 95.95 30.8574C96.708 31.8175 97.087 33.1314 97.087 34.799C97.087 36.0876 96.7459 37.3004 96.0637 38.4374C95.3815 39.5744 94.3708 40.4966 93.0317 41.2041C91.6926 41.9116 90.1134 42.2653 88.2942 42.2653ZM105.611 25.0587C106.293 23.8712 107.304 22.8858 108.643 22.1025C110.008 21.294 111.587 20.8897 113.381 20.8897C115.225 20.8897 116.893 21.3319 118.384 22.2162C119.9 23.1005 121.087 24.3512 121.946 25.9683C122.805 27.5601 123.235 29.4172 123.235 31.5396C123.235 33.6367 122.805 35.5065 121.946 37.1488C121.087 38.7911 119.9 40.0671 118.384 40.9767C116.893 41.8863 115.225 42.3411 113.381 42.3411C111.612 42.3411 110.046 41.9495 108.681 41.1662C107.342 40.3577 106.319 39.3596 105.611 38.1721V51.854H102.162V21.2308H105.611V25.0587ZM119.71 31.5396C119.71 29.9731 119.394 28.6087 118.763 27.4464C118.131 26.2841 117.272 25.3998 116.185 24.7934C115.124 24.187 113.949 23.8838 112.661 23.8838C111.397 23.8838 110.222 24.1996 109.136 24.8313C108.075 25.4377 107.216 26.3347 106.559 27.5222C105.927 28.6845 105.611 30.0362 105.611 31.5775C105.611 33.144 105.927 34.5211 106.559 35.7086C107.216 36.8709 108.075 37.7678 109.136 38.3995C110.222 39.0059 111.397 39.3091 112.661 39.3091C113.949 39.3091 115.124 39.0059 116.185 38.3995C117.272 37.7678 118.131 36.8709 118.763 35.7086C119.394 34.5211 119.71 33.1314 119.71 31.5396ZM131.223 24.6039C131.83 23.4164 132.689 22.4941 133.801 21.8372C134.938 21.1803 136.315 20.8518 137.932 20.8518V24.4144H137.022C133.156 24.4144 131.223 26.5115 131.223 30.7058V42H127.774V21.2308H131.223V24.6039ZM143.694 17.8577C143.037 17.8577 142.481 17.6303 142.027 17.1755C141.572 16.7207 141.344 16.1648 141.344 15.5079C141.344 14.851 141.572 14.2951 142.027 13.8403C142.481 13.3855 143.037 13.1581 143.694 13.1581C144.326 13.1581 144.856 13.3855 145.286 13.8403C145.741 14.2951 145.968 14.851 145.968 15.5079C145.968 16.1648 145.741 16.7207 145.286 17.1755C144.856 17.6303 144.326 17.8577 143.694 17.8577ZM145.362 21.2308V42H141.913V21.2308H145.362ZM161.359 20.8518C163.886 20.8518 165.932 21.6224 167.499 23.1637C169.066 24.6797 169.849 26.8779 169.849 29.7583V42H166.438V30.251C166.438 28.1791 165.92 26.6 164.884 25.5135C163.848 24.4018 162.433 23.8459 160.639 23.8459C158.82 23.8459 157.367 24.4144 156.281 25.5514C155.219 26.6884 154.689 28.3434 154.689 30.5163V42H151.24V21.2308H154.689V24.187C155.371 23.1258 156.293 22.3046 157.455 21.7235C158.643 21.1424 159.944 20.8518 161.359 20.8518ZM184.048 20.8897C185.842 20.8897 187.408 21.2813 188.748 22.0646C190.112 22.8479 191.123 23.8333 191.78 25.0208V21.2308H195.266V42.4548C195.266 44.3498 194.862 46.03 194.054 47.4955C193.245 48.9862 192.083 50.1485 190.567 50.9823C189.076 51.8161 187.333 52.233 185.337 52.233C182.608 52.233 180.334 51.5887 178.515 50.3001C176.695 49.0115 175.622 47.2555 175.293 45.032H178.704C179.083 46.2953 179.866 47.306 181.054 48.064C182.241 48.8473 183.669 49.2389 185.337 49.2389C187.232 49.2389 188.773 48.6451 189.96 47.4576C191.173 46.2701 191.78 44.6025 191.78 42.4548V38.0963C191.097 39.3091 190.087 40.3198 188.748 41.1283C187.408 41.9368 185.842 42.3411 184.048 42.3411C182.203 42.3411 180.523 41.8863 179.007 40.9767C177.517 40.0671 176.342 38.7911 175.483 37.1488C174.623 35.5065 174.194 33.6367 174.194 31.5396C174.194 29.4172 174.623 27.5601 175.483 25.9683C176.342 24.3512 177.517 23.1005 179.007 22.2162C180.523 21.3319 182.203 20.8897 184.048 20.8897ZM191.78 31.5775C191.78 30.011 191.464 28.6466 190.832 27.4843C190.2 26.322 189.341 25.4377 188.255 24.8313C187.194 24.1996 186.019 23.8838 184.73 23.8838C183.442 23.8838 182.267 24.187 181.205 24.7934C180.144 25.3998 179.298 26.2841 178.666 27.4464C178.034 28.6087 177.719 29.9731 177.719 31.5396C177.719 33.1314 178.034 34.5211 178.666 35.7086C179.298 36.8709 180.144 37.7678 181.205 38.3995C182.267 39.0059 183.442 39.3091 184.73 39.3091C186.019 39.3091 187.194 39.0059 188.255 38.3995C189.341 37.7678 190.2 36.8709 190.832 35.7086C191.464 34.5211 191.78 33.144 191.78 31.5775Z" fill="#529FE7"/>
<circle cx="204.5" cy="37.5" r="4.5" fill="#E79952"/>
</svg>
