<svg viewBox="0 0 22 23" fill="none" xmlns="http://www.w3.org/2000/svg">
<path d="M19.5422 18.8584L13.9627 13.2789C14.8285 12.1596 15.2969 10.791 15.2969 9.35156C15.2969 7.62851 14.6244 6.01289 13.4084 4.79473C12.1924 3.57656 10.5725 2.90625 8.85156 2.90625C7.13066 2.90625 5.51074 3.57871 4.29473 4.79473C3.07656 6.01074 2.40625 7.62851 2.40625 9.35156C2.40625 11.0725 3.07871 12.6924 4.29473 13.9084C5.51074 15.1266 7.12851 15.7969 8.85156 15.7969C10.291 15.7969 11.6574 15.3285 12.7768 14.4648L18.3562 20.0422C18.3726 20.0586 18.392 20.0715 18.4134 20.0804C18.4348 20.0893 18.4577 20.0938 18.4809 20.0938C18.504 20.0938 18.5269 20.0893 18.5483 20.0804C18.5697 20.0715 18.5891 20.0586 18.6055 20.0422L19.5422 19.1076C19.5586 19.0913 19.5715 19.0718 19.5804 19.0504C19.5893 19.0291 19.5938 19.0061 19.5938 18.983C19.5938 18.9599 19.5893 18.9369 19.5804 18.9156C19.5715 18.8942 19.5586 18.8748 19.5422 18.8584ZM12.2547 12.7547C11.3437 13.6635 10.1363 14.1641 8.85156 14.1641C7.5668 14.1641 6.35937 13.6635 5.44844 12.7547C4.53965 11.8437 4.03906 10.6363 4.03906 9.35156C4.03906 8.0668 4.53965 6.85723 5.44844 5.94844C6.35937 5.03965 7.5668 4.53906 8.85156 4.53906C10.1363 4.53906 11.3459 5.0375 12.2547 5.94844C13.1635 6.85937 13.6641 8.0668 13.6641 9.35156C13.6641 10.6363 13.1635 11.8459 12.2547 12.7547Z" fill="#635E5A"/>
</svg>
