<svg width="100%" height="100%" viewBox="0 0 56 56" fill="currentColor" xmlns="http://www.w3.org/2000/svg">
<path d="M27.975 0.768801C12.5188 0.762551 0 13.2751 0 28.7188C0 40.9313 7.83125 51.3125 18.7375 55.125C20.2062 55.4938 19.9813 54.45 19.9813 53.7375V48.8938C11.5 49.8875 11.1562 44.2751 10.5875 43.3376C9.4375 41.3751 6.71875 40.875 7.53125 39.9375C9.4625 38.9438 11.4312 40.1876 13.7125 43.5563C15.3625 46.0001 18.5812 45.5876 20.2125 45.1813C20.5687 43.7126 21.3313 42.4 22.3813 41.3813C13.5938 39.8063 9.93125 34.4438 9.93125 28.0688C9.93125 24.975 10.95 22.1313 12.95 19.8376C11.675 16.0563 13.0688 12.8188 13.2563 12.3376C16.8875 12.0126 20.6625 14.9376 20.9562 15.1688C23.0187 14.6126 25.375 14.3188 28.0125 14.3188C30.6625 14.3188 33.025 14.6251 35.1063 15.1876C35.8125 14.6501 39.3125 12.1376 42.6875 12.4438C42.8688 12.9251 44.2313 16.0876 43.0312 19.8188C45.0563 22.1188 46.0875 24.9876 46.0875 28.0876C46.0875 34.4751 42.4 39.8438 33.5875 41.3938C34.3423 42.1361 34.9416 43.0214 35.3505 43.9979C35.7594 44.9744 35.9695 46.0226 35.9688 47.0813V54.1125C36.0188 54.675 35.9688 55.2313 36.9062 55.2313C47.975 51.5001 55.9437 41.0438 55.9437 28.725C55.9437 13.2751 43.4188 0.768801 27.975 0.768801V0.768801Z" fill="currentColor"/>
</svg>
