<svg width="100%" height="100%" viewBox="0 0 82 63" fill="none" xmlns="http://www.w3.org/2000/svg">
<path d="M30.1251 31.5C30.1251 34.2848 31.2313 36.9555 33.2004 38.9246C35.1696 40.8938 37.8403 42 40.6251 42C43.4098 42 46.0805 40.8938 48.0497 38.9246C50.0188 36.9555 51.1251 34.2848 51.1251 31.5C51.1251 28.7152 50.0188 26.0445 48.0497 24.0754C46.0805 22.1062 43.4098 21 40.6251 21C37.8403 21 35.1696 22.1062 33.2004 24.0754C31.2313 26.0445 30.1251 28.7152 30.1251 31.5ZM81.3313 29.0813C72.4438 10.3594 59.0094 0.9375 41.0001 0.9375C22.9813 0.9375 9.5563 10.3594 0.668803 29.0906C0.312323 29.8455 0.127441 30.6699 0.127441 31.5047C0.127441 32.3395 0.312323 33.1639 0.668803 33.9187C9.5563 52.6406 22.9907 62.0625 41.0001 62.0625C59.0188 62.0625 72.4438 52.6406 81.3313 33.9094C82.0532 32.3906 82.0532 30.6281 81.3313 29.0813ZM40.6251 48C31.5126 48 24.1251 40.6125 24.1251 31.5C24.1251 22.3875 31.5126 15 40.6251 15C49.7376 15 57.1251 22.3875 57.1251 31.5C57.1251 40.6125 49.7376 48 40.6251 48Z" fill="#1D87D2"/>
</svg>
