<svg width="100%" height="100%" viewBox="0 0 82 73" fill="none" xmlns="http://www.w3.org/2000/svg">
<path d="M79.5312 15.0876C78.2746 12.1779 76.4627 9.54121 74.1969 7.32507C71.9294 5.10231 69.2559 3.33592 66.3219 2.12194C63.2795 0.858126 60.0163 0.211233 56.7219 0.218816C52.1 0.218816 47.5906 1.48444 43.6719 3.87507C42.7344 4.44694 41.8438 5.07507 41 5.75944C40.1562 5.07507 39.2656 4.44694 38.3281 3.87507C34.4094 1.48444 29.9 0.218816 25.2781 0.218816C21.95 0.218816 18.725 0.856316 15.6781 2.12194C12.7344 3.34069 10.0812 5.09382 7.80312 7.32507C5.53434 9.53871 3.72198 12.176 2.46875 15.0876C1.16563 18.1157 0.5 21.3313 0.5 24.6407C0.5 27.7626 1.1375 31.0157 2.40313 34.3251C3.4625 37.0907 4.98125 39.9594 6.92188 42.8563C9.99687 47.4407 14.225 52.2219 19.475 57.0688C28.175 65.1032 36.7906 70.6532 37.1562 70.8782L39.3781 72.3032C40.3625 72.9313 41.6281 72.9313 42.6125 72.3032L44.8344 70.8782C45.2 70.6438 53.8063 65.1032 62.5156 57.0688C67.7656 52.2219 71.9938 47.4407 75.0688 42.8563C77.0094 39.9594 78.5375 37.0907 79.5875 34.3251C80.8531 31.0157 81.4906 27.7626 81.4906 24.6407C81.5 21.3313 80.8344 18.1157 79.5312 15.0876Z" fill="#D24B1D"/>
</svg>
