<svg width="100%" height="100%" viewBox="0 0 76 75" fill="none" xmlns="http://www.w3.org/2000/svg">
<path d="M75.275 69.6094L50.9281 45.2625C54.7063 40.3781 56.75 34.4062 56.75 28.125C56.75 20.6063 53.8156 13.5562 48.5094 8.24062C43.2031 2.925 36.1344 0 28.625 0C21.1156 0 14.0469 2.93437 8.74062 8.24062C3.425 13.5469 0.5 20.6063 0.5 28.125C0.5 35.6344 3.43437 42.7031 8.74062 48.0094C14.0469 53.325 21.1063 56.25 28.625 56.25C34.9062 56.25 40.8688 54.2062 45.7531 50.4375L70.1 74.775C70.1714 74.8464 70.2562 74.9031 70.3495 74.9418C70.4428 74.9804 70.5428 75.0003 70.6438 75.0003C70.7447 75.0003 70.8447 74.9804 70.938 74.9418C71.0313 74.9031 71.1161 74.8464 71.1875 74.775L75.275 70.6969C75.3464 70.6255 75.4031 70.5407 75.4418 70.4474C75.4804 70.3541 75.5003 70.2541 75.5003 70.1531C75.5003 70.0521 75.4804 69.9521 75.4418 69.8588C75.4031 69.7655 75.3464 69.6808 75.275 69.6094ZM43.475 42.975C39.5 46.9406 34.2313 49.125 28.625 49.125C23.0187 49.125 17.75 46.9406 13.775 42.975C9.80938 39 7.625 33.7313 7.625 28.125C7.625 22.5187 9.80938 17.2406 13.775 13.275C17.75 9.30938 23.0187 7.125 28.625 7.125C34.2313 7.125 39.5094 9.3 43.475 13.275C47.4406 17.25 49.625 22.5187 49.625 28.125C49.625 33.7313 47.4406 39.0094 43.475 42.975Z" fill="#E79952"/>
</svg>
